<svg width="27" height="25" viewBox="0 0 27 25" fill="none" xmlns="http://www.w3.org/2000/svg">
                        <path d="M1.76825 2.18006L2.68799 0.995126C2.23564 0.644006 1.62284 0.581069 1.10856 0.832909C0.594274 1.08475 0.268246 1.60742 0.268246 2.18006H1.76825ZM1.76825 23.3099H0.268246C0.268246 23.8825 0.594274 24.4052 1.10856 24.6571C1.62284 24.9089 2.23564 24.846 2.68799 24.4948L1.76825 23.3099ZM15.3793 12.745L16.299 13.9299C16.6651 13.6458 16.8793 13.2084 16.8793 12.745C16.8793 12.2816 16.6651 11.8442 16.299 11.5601L15.3793 12.745ZM0.268246 2.18006V23.3099H3.26825V2.18006H0.268246ZM2.68799 24.4948L16.299 13.9299L14.4595 11.5601L0.848498 22.125L2.68799 24.4948ZM16.299 11.5601L2.68799 0.995126L0.848498 3.36499L14.4595 13.9299L16.299 11.5601ZM23.6014 1.12357V24.3664H26.6014V1.12357H23.6014Z" fill="#091127"/>
                        </svg>