<svg width="27" height="25" viewBox="0 0 27 25" fill="none" xmlns="http://www.w3.org/2000/svg">
                        <path d="M25.2318 23.3099L24.3121 24.4948C24.7644 24.8459 25.3772 24.9089 25.8915 24.657C26.4058 24.4052 26.7318 23.8825 26.7318 23.3099H25.2318ZM25.2318 2.18002H26.7318C26.7318 1.60739 26.4058 1.08471 25.8915 0.832872C25.3772 0.58103 24.7644 0.643967 24.3121 0.995085L25.2318 2.18002ZM11.6207 12.7449L10.701 11.56C10.3349 11.8442 10.1207 12.2815 10.1207 12.7449C10.1207 13.2084 10.3349 13.6457 10.701 13.9299L11.6207 12.7449ZM26.7318 23.3099V2.18002H23.7318V23.3099H26.7318ZM24.3121 0.995085L10.701 11.56L12.5405 13.9299L26.1516 3.36495L24.3121 0.995085ZM10.701 13.9299L24.3121 24.4948L26.1516 22.1249L12.5405 11.56L10.701 13.9299ZM3.39848 24.3664V1.12353H0.398479V24.3664H3.39848Z" fill="#091127"/>
                        </svg>