<svg width="16" height="17" viewBox="0 0 16 17" fill="none" xmlns="http://www.w3.org/2000/svg">
<path d="M3.83382 4.50866H12.1671V6.00033C12.1671 6.37533 12.6171 6.55866 12.8755 6.29199L15.2005 3.96699C15.3671 3.80033 15.3671 3.54199 15.2005 3.37533L12.8755 1.05033C12.8167 0.992742 12.7423 0.953835 12.6614 0.938509C12.5806 0.923183 12.4971 0.932124 12.4213 0.964206C12.3456 0.996288 12.281 1.05008 12.2358 1.11879C12.1905 1.1875 12.1667 1.26807 12.1671 1.35033V2.84199H3.00048C2.54215 2.84199 2.16715 3.21699 2.16715 3.67533V7.00866C2.16715 7.46699 2.54215 7.84199 3.00048 7.84199C3.45882 7.84199 3.83382 7.46699 3.83382 7.00866V4.50866ZM12.1671 12.842H3.83382V11.3503C3.83382 10.9753 3.38382 10.792 3.12548 11.0587L0.800484 13.3837C0.633817 13.5503 0.633817 13.8087 0.800484 13.9753L3.12548 16.3003C3.18423 16.3579 3.25871 16.3968 3.33953 16.4121C3.42035 16.4275 3.50391 16.4185 3.57965 16.3864C3.6554 16.3544 3.71996 16.3006 3.76519 16.2319C3.81042 16.1632 3.8343 16.0826 3.83382 16.0003V14.5087H13.0005C13.4588 14.5087 13.8338 14.1337 13.8338 13.6753V10.342C13.8338 9.88366 13.4588 9.50866 13.0005 9.50866C12.5421 9.50866 12.1671 9.88366 12.1671 10.342V12.842Z" fill="#8996B8"/>
</svg>
