<svg width="15" height="14" viewBox="0 0 15 14" fill="none" xmlns="http://www.w3.org/2000/svg">
<path d="M12.4 4.43365C12.4 4.65467 12.4878 4.86663 12.644 5.02291C12.8003 5.17919 13.0123 5.26699 13.2333 5.26699C13.4543 5.26699 13.6663 5.17919 13.8226 5.02291C13.9788 4.86663 14.0666 4.65467 14.0666 4.43365V0.841985C14.0666 0.620971 13.9788 0.40901 13.8226 0.25273C13.6663 0.0964493 13.4543 0.00865173 13.2333 0.00865173H9.64997C9.42896 0.00865173 9.21699 0.0964493 9.06071 0.25273C8.90443 0.40901 8.81664 0.620971 8.81664 0.841985C8.81664 1.063 8.90443 1.27496 9.06071 1.43124C9.21699 1.58752 9.42896 1.67532 9.64997 1.67532H11.225L7.39997 5.50032L2.5333 0.641985C2.37388 0.505463 2.16882 0.434124 1.95909 0.442225C1.74936 0.450326 1.55041 0.53727 1.402 0.685682C1.25359 0.834094 1.16664 1.03304 1.15854 1.24277C1.15044 1.4525 1.22178 1.65757 1.3583 1.81699L6.21664 6.67532L0.974968 11.917C0.896861 11.9945 0.834866 12.0866 0.792559 12.1882C0.750252 12.2897 0.72847 12.3986 0.72847 12.5087C0.72847 12.6187 0.750252 12.7276 0.792559 12.8291C0.834866 12.9307 0.896861 13.0228 0.974968 13.1003C1.05244 13.1784 1.14461 13.2404 1.24615 13.2827C1.3477 13.325 1.45663 13.3468 1.56664 13.3468C1.67665 13.3468 1.78557 13.325 1.88712 13.2827C1.98867 13.2404 2.08083 13.1784 2.1583 13.1003L12.4 2.85865V4.43365Z" fill="#8996B8"/>
<path d="M13.2333 8.07531C13.0123 8.07531 12.8003 8.16311 12.644 8.31939C12.4878 8.47567 12.4 8.68763 12.4 8.90865V10.5003L10.0833 8.17531C9.92638 8.01839 9.71355 7.93024 9.49164 7.93024C9.26972 7.93024 9.05689 8.01839 8.89997 8.17531C8.74305 8.33223 8.65489 8.54506 8.65489 8.76698C8.65489 8.9889 8.74305 9.20173 8.89997 9.35865L11.2083 11.6753H9.64164C9.42062 11.6753 9.20866 11.7631 9.05238 11.9194C8.8961 12.0757 8.8083 12.2876 8.8083 12.5086C8.8083 12.7297 8.8961 12.9416 9.05238 13.0979C9.20866 13.2542 9.42062 13.342 9.64164 13.342H13.2333C13.3509 13.3427 13.4673 13.3185 13.5749 13.271C13.6825 13.2235 13.7788 13.1538 13.8575 13.0664C13.9362 12.9791 13.9955 12.876 14.0316 12.7641C14.0676 12.6522 14.0796 12.5339 14.0666 12.417V8.90865C14.0666 8.68763 13.9788 8.47567 13.8226 8.31939C13.6663 8.16311 13.4543 8.07531 13.2333 8.07531Z" fill="#8996B8"/>
</svg>