




<svg width="16" height="19" viewBox="0 0 16 19" fill="none" xmlns="http://www.w3.org/2000/svg">
<path d="M5.66667 13.6675L6.05236 13.0243L5.87429 12.9175H5.66667V13.6675ZM5.66667 5.67272V6.42272H5.87429L6.05236 6.31595L5.66667 5.67272ZM12.3333 1.67532H13.0833C13.0833 1.40516 12.938 1.15587 12.703 1.02273C12.4679 0.889583 12.1794 0.893161 11.9477 1.03209L12.3333 1.67532ZM12.3333 17.6649L11.9477 18.3081C12.1794 18.4471 12.4679 18.4506 12.703 18.3175C12.938 18.1843 13.0833 17.9351 13.0833 17.6649H12.3333ZM5.66667 12.9175H3.00001V14.4175H5.66667V12.9175ZM3.00001 12.9175C2.67727 12.9175 2.41667 12.6567 2.41667 12.335H0.916672C0.916672 13.4871 1.85074 14.4175 3.00001 14.4175V12.9175ZM2.41667 12.335V7.00518H0.916672V12.335H2.41667ZM2.41667 7.00518C2.41667 6.68349 2.67727 6.42272 3.00001 6.42272V4.92272C1.85074 4.92272 0.916672 5.85317 0.916672 7.00518H2.41667ZM3.00001 6.42272H5.66667V4.92272H3.00001V6.42272ZM6.05236 6.31595L12.719 2.31855L11.9477 1.03209L5.28098 5.02949L6.05236 6.31595ZM11.5833 1.67532V17.6649H13.0833V1.67532H11.5833ZM12.719 17.0217L6.05236 13.0243L5.28098 14.3107L11.9477 18.3081L12.719 17.0217ZM14.25 7.67532V11.6753H15.75V7.67532H14.25Z" fill="#8996B8"/>
</svg>